<svg width="800" height="300" viewBox="0 0 800 300" xmlns="http://www.w3.org/2000/svg"><title>logo</title><g transform="translate(229 121)" fill="none" fill-rule="evenodd"><path d="M.277 57h4.606V34.5c0-7.031 4.605-11.848 11.39-11.848 6.364 0 9.352 3.48 9.352 10.899V57h4.605V32.39c0-9-4.464-13.886-12.726-13.886-5.871 0-10.3 2.672-12.375 7.453h-.457V4.055H.277V57zM60.465 9.117c2.39 0 4.36-1.969 4.36-4.36 0-2.39-1.97-4.359-4.36-4.359-2.39 0-4.36 1.97-4.36 4.36 0 2.39 1.97 4.36 4.36 4.36zM76.25 57v-3.727H63.277V19.137h-18v3.726h13.395v30.41H45.348V57H76.25zm29.707.633c-5.379 0-9.422-2.11-11.637-6.082h-.632V57h-4.395V4.055h4.605v20.672h.633c1.793-3.973 5.942-6.223 11.426-6.223 8.79 0 14.766 6.469 14.766 15.926v7.277c0 9.457-5.977 15.926-14.766 15.926zm-1.02-4.113c6.786 0 11.18-5.098 11.18-12.903v-5.062c0-7.805-4.394-12.903-11.18-12.903-6.75 0-11.144 5.063-11.144 12.903v5.062c0 7.84 4.394 12.903 11.144 12.903zM149.48 9.117c2.391 0 4.36-1.969 4.36-4.36 0-2.39-1.969-4.359-4.36-4.359-2.39 0-4.359 1.97-4.359 4.36 0 2.39 1.969 4.36 4.36 4.36zM165.266 57v-3.727h-12.973V19.137h-18v3.726h13.394v30.41h-13.324V57h30.903zm14.8-28.02c0 5.168 3.305 8.473 10.055 10.055l5.59 1.336c5.168 1.23 7.172 3.059 7.172 6.504 0 4.148-3.621 6.82-9.281 6.82-5.274 0-8.93-2.285-9.915-6.187h-4.78c.702 6.222 6.292 10.125 14.484 10.125 8.613 0 14.273-4.36 14.273-11.04 0-5.343-3.305-8.542-10.582-10.265l-5.133-1.195c-5.168-1.196-7.242-3.024-7.242-6.328 0-3.938 3.375-6.47 8.648-6.47 4.817 0 8.262 2.286 9.07 5.977h4.536c-.809-5.976-6.047-9.808-13.465-9.808-7.98 0-13.43 4.254-13.43 10.476z" fill="#FCC419"/><path d="M253.05 30.281h-4.57c-.773-4.5-4.957-7.629-10.125-7.629-7.207 0-11.214 4.817-11.214 13.5v3.832c0 8.684 4.007 13.5 11.214 13.5 5.168 0 9.352-3.129 10.125-7.629h4.57c-.984 7.102-6.75 11.778-14.59 11.778-9.948 0-15.925-6.328-15.925-16.875v-5.38c0-10.546 5.977-16.874 15.926-16.874 7.84 0 13.605 4.676 14.59 11.777zm16.032-1.3c0-6.223 5.45-10.477 13.43-10.477 7.418 0 12.656 3.832 13.465 9.808h-4.536c-.808-3.69-4.253-5.976-9.07-5.976-5.273 0-8.648 2.531-8.648 6.469 0 3.304 2.074 5.133 7.242 6.328l5.133 1.195c7.277 1.723 10.582 4.922 10.582 10.266 0 6.68-5.66 11.039-14.274 11.039-8.191 0-13.781-3.903-14.484-10.125h4.781c.985 3.902 4.64 6.187 9.914 6.187 5.66 0 9.281-2.672 9.281-6.82 0-3.445-2.003-5.273-7.171-6.504l-5.59-1.336c-6.75-1.582-10.055-4.887-10.055-10.055zm44.508 0c0-6.223 5.45-10.477 13.43-10.477 7.418 0 12.656 3.832 13.464 9.808h-4.535c-.808-3.69-4.254-5.976-9.07-5.976-5.274 0-8.649 2.531-8.649 6.469 0 3.304 2.075 5.133 7.243 6.328l5.132 1.195c7.278 1.723 10.582 4.922 10.582 10.266 0 6.68-5.66 11.039-14.273 11.039-8.191 0-13.781-3.903-14.484-10.125h4.78c.985 3.902 4.642 6.187 9.915 6.187 5.66 0 9.281-2.672 9.281-6.82 0-3.445-2.004-5.273-7.172-6.504l-5.59-1.336c-6.75-1.582-10.054-4.887-10.054-10.055z" fill="#FF8787"/></g></svg>